<svg width="13" height="14" viewBox="0 0 13 14" fill="none" xmlns="http://www.w3.org/2000/svg">
<path d="M8.88487 4.17136L5.11421 7.94269C5.05053 8.00419 4.99975 8.07775 4.96481 8.15909C4.92987 8.24043 4.91148 8.32791 4.91071 8.41643C4.90994 8.50495 4.92681 8.59273 4.96033 8.67466C4.99385 8.75659 5.04335 8.83103 5.10594 8.89362C5.16854 8.95622 5.24297 9.00572 5.3249 9.03924C5.40683 9.07276 5.49462 9.08963 5.58314 9.08886C5.67166 9.08809 5.75914 9.0697 5.84048 9.03476C5.92181 8.99982 5.99538 8.94903 6.05687 8.88536L9.82821 5.11469C10.2033 4.73959 10.414 4.23084 10.414 3.70036C10.414 3.16988 10.2033 2.66113 9.82821 2.28603C9.4531 1.91092 8.94435 1.70019 8.41387 1.70019C7.8834 1.70019 7.37464 1.91092 6.99954 2.28603L3.22821 6.05736C2.91226 6.36545 2.66063 6.7332 2.48791 7.13929C2.3152 7.54538 2.22484 7.98173 2.22207 8.42301C2.21931 8.8643 2.30419 9.30174 2.4718 9.70996C2.63942 10.1182 2.88642 10.4891 3.19848 10.8011C3.51055 11.1131 3.88146 11.3601 4.28971 11.5276C4.69796 11.6952 5.13541 11.78 5.5767 11.7772C6.01798 11.7743 6.45431 11.6839 6.86038 11.5111C7.26645 11.3384 7.63417 11.0867 7.94221 10.7707L11.7135 7.00003L12.6562 7.94269L8.88487 11.714C8.45151 12.1474 7.93704 12.4912 7.37082 12.7257C6.80461 12.9602 6.19774 13.0809 5.58487 13.0809C4.97201 13.0809 4.36514 12.9602 3.79893 12.7257C3.23271 12.4912 2.71824 12.1474 2.28487 11.714C1.85151 11.2807 1.50775 10.7662 1.27322 10.2C1.03868 9.63376 0.917969 9.02689 0.917969 8.41403C0.917969 7.80116 1.03868 7.19429 1.27322 6.62808C1.50775 6.06186 1.85151 5.54739 2.28487 5.11403L6.05687 1.34336C6.68555 0.736167 7.52755 0.400185 8.40154 0.40778C9.27553 0.415375 10.1116 0.765938 10.7296 1.38396C11.3476 2.00199 11.6982 2.83803 11.7058 3.71202C11.7134 4.58601 11.3774 5.42802 10.7702 6.05669L6.99954 9.82936C6.81376 10.0151 6.59322 10.1624 6.35051 10.2629C6.1078 10.3634 5.84767 10.4151 5.58497 10.4151C5.32227 10.4151 5.06216 10.3633 4.81947 10.2627C4.57678 10.1622 4.35627 10.0148 4.17054 9.82903C3.98481 9.64325 3.83748 9.42271 3.73698 9.18C3.63648 8.93729 3.58477 8.67716 3.5848 8.41446C3.58483 8.15176 3.63661 7.89164 3.73716 7.64895C3.83772 7.40627 3.9851 7.18576 4.17087 7.00003L7.94221 3.22869L8.88487 4.17136Z" fill="white"/>
</svg>
