<svg width="14" height="14" viewBox="0 0 14 14" fill="none" xmlns="http://www.w3.org/2000/svg">
<path d="M3.86035 12.8826L0.333015 13.6666L1.11702 10.1393C0.600703 9.17357 0.331367 8.09508 0.333015 6.99998C0.333015 3.31798 3.31768 0.333313 6.99968 0.333313C10.6817 0.333313 13.6663 3.31798 13.6663 6.99998C13.6663 10.682 10.6817 13.6666 6.99968 13.6666C5.90458 13.6683 4.82609 13.399 3.86035 12.8826ZM4.05368 11.474L4.48902 11.7073C5.26138 12.1201 6.12394 12.3351 6.99968 12.3333C8.05452 12.3333 9.08566 12.0205 9.96272 11.4345C10.8398 10.8484 11.5234 10.0155 11.927 9.04096C12.3307 8.06642 12.4363 6.99406 12.2305 5.9595C12.0247 4.92493 11.5168 3.97462 10.7709 3.22874C10.025 2.48286 9.07473 1.97491 8.04016 1.76912C7.0056 1.56334 5.93324 1.66895 4.9587 2.07262C3.98416 2.47629 3.15121 3.15988 2.56518 4.03694C1.97914 4.914 1.66635 5.94515 1.66635 6.99998C1.66635 7.88931 1.88302 8.74531 2.29302 9.51065L2.52568 9.94598L2.08902 11.9106L4.05368 11.474Z" fill="white"/>
</svg>
