<svg width="22" height="21" viewBox="0 0 22 21" fill="none" xmlns="http://www.w3.org/2000/svg">
<path d="M9.90009 0.100006L19.7991 1.51501L21.2131 11.415L12.0211 20.607C11.8336 20.7945 11.5793 20.8998 11.3141 20.8998C11.0489 20.8998 10.7946 20.7945 10.6071 20.607L0.707093 10.707C0.519622 10.5195 0.414307 10.2652 0.414307 10C0.414307 9.73484 0.519622 9.48053 0.707093 9.29301L9.90009 0.100006ZM12.7281 8.58601C12.9138 8.7717 13.1344 8.91898 13.377 9.01945C13.6197 9.11992 13.8798 9.17161 14.1424 9.17156C14.4051 9.17151 14.6652 9.11973 14.9078 9.01918C15.1504 8.91862 15.3709 8.77126 15.5566 8.58551C15.7423 8.39975 15.8896 8.17924 15.99 7.93657C16.0905 7.69389 16.1422 7.4338 16.1421 7.17115C16.1421 6.9085 16.0903 6.64843 15.9898 6.40579C15.8892 6.16315 15.7418 5.9427 15.5561 5.75701C15.3703 5.57132 15.1498 5.42403 14.9072 5.32356C14.6645 5.22309 14.4044 5.17141 14.1417 5.17145C13.6113 5.17155 13.1026 5.38236 12.7276 5.75751C12.3526 6.13266 12.1419 6.64141 12.142 7.17186C12.1421 7.70231 12.3529 8.21099 12.7281 8.58601Z" fill="white"/>
</svg>
