<svg width="12" height="14" viewBox="0 0 12 14" fill="none" xmlns="http://www.w3.org/2000/svg">
<path d="M4.66667 0.333313C5.03467 0.333313 5.33333 0.63198 5.33333 0.99998V3.66665C5.33333 4.03465 5.03467 4.33331 4.66667 4.33331H3.33333V5.66665H6.66667V4.99998C6.66667 4.63198 6.96533 4.33331 7.33333 4.33331H11.3333C11.7013 4.33331 12 4.63198 12 4.99998V7.66665C12 8.03465 11.7013 8.33331 11.3333 8.33331H7.33333C6.96533 8.33331 6.66667 8.03465 6.66667 7.66665V6.99998H3.33333V11H6.66667V10.3333C6.66667 9.96531 6.96533 9.66665 7.33333 9.66665H11.3333C11.7013 9.66665 12 9.96531 12 10.3333V13C12 13.368 11.7013 13.6666 11.3333 13.6666H7.33333C6.96533 13.6666 6.66667 13.368 6.66667 13V12.3333H2.66667C2.29867 12.3333 2 12.0346 2 11.6666V4.33331H0.666667C0.298667 4.33331 0 4.03465 0 3.66665V0.99998C0 0.63198 0.298667 0.333313 0.666667 0.333313H4.66667ZM10.6667 11H8V12.3333H10.6667V11ZM10.6667 5.66665H8V6.99998H10.6667V5.66665ZM4 1.66665H1.33333V2.99998H4V1.66665Z" fill="white"/>
</svg>
